<svg width="92" height="92" viewBox="0 0 92 92" fill="none" xmlns="http://www.w3.org/2000/svg">
<circle cx="46.3263" cy="45.6737" r="27.8067" stroke="black" stroke-width="0.5"/>
<circle cx="46" cy="46" r="45.75" stroke="black" stroke-width="0.5"/>
<path d="M17.1017 70.2558L17.1552 70.2106L17.2365 70.3069C17.4896 70.6062 17.606 70.5812 17.9234 70.3495L21.139 67.897L21.2512 67.8021C21.3742 67.6982 21.3907 67.6201 21.1738 67.3635L20.9749 67.1283L21.023 67.0876L21.7551 67.9536L19.9799 72.0666C19.9182 72.2105 19.859 72.3247 19.8269 72.3518L19.8495 72.3786C19.8815 72.3515 20.0353 72.2948 20.1471 72.2644L24.4982 71.1985L25.2439 72.0806L25.1958 72.1213L25.0286 71.9235C24.7845 71.6348 24.6682 71.6598 24.5132 71.7909C24.4704 71.827 24.4268 71.873 24.3733 71.9182L21.5025 74.5834C21.2069 74.8517 21.1682 74.9577 21.4393 75.2785L21.5478 75.4068L21.4997 75.4474L20.2027 73.9132L20.2508 73.8725L20.4316 74.0864C20.7027 74.4071 20.819 74.3821 20.9473 74.2736L21.0382 74.1968L23.756 71.6976C23.8477 71.6109 23.9279 71.5431 23.9867 71.4934L23.9551 71.456C23.9391 71.4696 23.8166 71.509 23.6591 71.5504L19.1193 72.675L19.0683 72.6906L19.0548 72.6746L19.0786 72.6269L20.9024 68.4087C20.9686 68.2702 21.0566 68.1683 21.0727 68.1547L21.0546 68.1333C21.0065 68.174 20.9691 68.2057 20.8683 68.2817L17.9352 70.5045C17.8871 70.5452 17.8398 70.576 17.8024 70.6076C17.6741 70.7161 17.656 70.8139 17.9317 71.14L18.1079 71.3485L18.0598 71.3891L17.1017 70.2558Z" fill="black"/>
<path d="M25.4637 77.8493C24.103 76.8053 23.8241 75.2944 24.7658 74.067C25.7032 72.8452 27.2349 72.7233 28.5955 73.7673C29.9451 74.8027 30.224 76.3136 29.2865 77.5355C28.3449 78.7628 26.8132 78.8847 25.4637 77.8493ZM25.5626 77.7663C26.6678 78.6143 27.7563 78.426 28.6724 77.2319C29.6908 75.9046 29.6296 74.7194 28.4966 73.8502C27.3859 72.998 26.2918 73.182 25.3757 74.3761C24.3573 75.7034 24.4185 76.8886 25.5626 77.7663Z" fill="black"/>
<path d="M32.0615 81.262C30.5246 80.5011 29.9585 79.0727 30.6449 77.6862C31.3282 76.3061 32.8072 75.8902 34.3442 76.6511C35.8686 77.4058 36.4346 78.8342 35.7514 80.2143C35.065 81.6007 33.5859 82.0166 32.0615 81.262ZM32.1425 81.1615C33.3909 81.7795 34.4224 81.3841 35.0901 80.0353C35.8324 78.536 35.543 77.3851 34.2632 76.7516C33.0085 76.1304 31.9708 76.5227 31.303 77.8715C30.5608 79.3708 30.8502 80.5217 32.1425 81.1615Z" fill="black"/>
<path d="M37.6846 82.735L38.4692 82.9444C40.0788 83.3741 41.1544 82.7918 41.5551 81.2903C41.9559 79.7889 41.3118 78.7548 39.7022 78.3251L38.9176 78.1157L38.9158 78.1225C38.9821 78.2271 38.9942 78.3173 38.9527 78.4729L37.893 82.4429C37.8515 82.5984 37.796 82.6706 37.6864 82.7282L37.6846 82.735ZM36.543 82.5607L36.5592 82.4998L36.8162 82.5684C37.1747 82.6641 37.2243 82.6411 37.3109 82.3165L38.3688 78.3532C38.4555 78.0286 38.4402 77.9231 38.0817 77.8274L37.8247 77.7588L37.841 77.6979L39.9376 78.2576C41.6825 78.7233 42.5858 80.0077 42.1976 81.4618C41.8077 82.9227 40.3845 83.5861 38.6396 83.1203L36.543 82.5607Z" fill="black"/>
<path d="M46.59 83.8274L46.5894 83.7574L46.7154 83.7564C47.1074 83.7534 47.1626 83.648 47.1876 83.2558L47.3594 79.2153L47.3582 79.0683C47.357 78.9073 47.3075 78.8447 46.9715 78.8473L46.6635 78.8497L46.663 78.7867L47.797 78.7779L49.8229 82.7734C49.894 82.9129 49.9439 83.0315 49.9442 83.0735L49.9792 83.0732C49.9789 83.0312 50.0337 82.8768 50.0819 82.7714L52.0459 78.7451L53.2008 78.7362L53.2013 78.7992L52.9423 78.8012C52.5643 78.8041 52.5092 78.9096 52.5107 79.1126C52.5112 79.1686 52.5186 79.2315 52.5192 79.3015L52.7314 83.213C52.7485 83.6119 52.8052 83.7094 53.2252 83.7062L53.3932 83.7049L53.3937 83.7679L51.3848 83.7834L51.3843 83.7204L51.6643 83.7182C52.0842 83.715 52.1394 83.6096 52.1381 83.4416L52.1372 83.3226L51.9547 79.6349C51.9468 79.5089 51.946 79.4039 51.9454 79.3269L51.8964 79.3273C51.8965 79.3483 51.8485 79.4677 51.7796 79.6152L49.74 83.8241L49.7194 83.8732L49.6984 83.8734L49.677 83.8246L47.6013 79.7245C47.5372 79.585 47.5152 79.4521 47.515 79.4311L47.487 79.4313C47.4875 79.4943 47.4879 79.5433 47.4819 79.6694L47.3143 83.3458C47.3147 83.4088 47.3082 83.4649 47.3086 83.5138C47.3099 83.6818 47.3734 83.7584 47.8004 83.7551L48.0734 83.753L48.0739 83.8159L46.59 83.8274Z" fill="black"/>
<path d="M57.8079 82.268C56.1353 82.647 54.7951 81.8955 54.4533 80.3868C54.113 78.8849 54.9984 77.6292 56.671 77.2502C58.3299 76.8743 59.6701 77.6257 60.0104 79.1276C60.3523 80.6364 59.4669 81.8921 57.8079 82.268ZM57.8074 82.1389C59.1659 81.8311 59.717 80.8736 59.3844 79.4059C59.0147 77.7742 58.0642 77.0637 56.6715 77.3792C55.3061 77.6886 54.7482 78.6476 55.0808 80.1154C55.4505 81.747 56.401 82.4576 57.8074 82.1389Z" fill="black"/>
<path d="M63.1567 79.8354L63.8973 79.5024C65.4168 78.8192 65.8831 77.6886 65.2459 76.2712C64.6086 74.8539 63.4562 74.4587 61.9368 75.1419L61.1962 75.4748L61.199 75.4812C61.3165 75.5205 61.3829 75.5828 61.4489 75.7296L63.1338 79.4772C63.1998 79.6241 63.2024 79.7151 63.1538 79.829L63.1567 79.8354ZM62.1613 80.421L62.1355 80.3636L62.3781 80.2545C62.7165 80.1024 62.7404 80.0532 62.6026 79.7468L60.9205 76.0055C60.7828 75.6991 60.7043 75.6269 60.3659 75.779L60.1233 75.8881L60.0975 75.8307L62.0766 74.9408C63.7238 74.2002 65.2353 74.6259 65.8524 75.9985C66.4724 77.3776 65.7876 78.7906 64.1405 79.5312L62.1613 80.421Z" fill="black"/>
<path d="M70.7306 71.9517L67.1247 74.4167L67.1721 74.4861C68.1162 75.8672 69.3251 76.1347 70.4115 75.392C71.2667 74.8073 71.7021 74.0178 71.6888 73.2045L71.8189 73.2088C71.8289 74.0668 71.3552 74.8995 70.4537 75.5157C69.1188 76.4283 67.5344 76.2565 66.6574 74.9736C65.7922 73.708 66.1574 72.2204 67.5617 71.2605C68.6654 70.5059 70.0738 70.5691 70.7928 71.6209L70.8125 71.6498C70.8757 71.7422 70.8404 71.8766 70.7306 71.9517ZM67.0593 74.3088L70.2331 72.0798C70.262 72.06 70.2675 72.0308 70.2438 71.9962C69.5683 71.008 68.5227 70.7561 67.627 71.3684C66.5406 72.1111 66.3428 73.1366 67.0593 74.3088Z" fill="black"/>
<path d="M73.8104 72.2245L73.7653 72.1804L73.9514 71.9903C74.2108 71.7251 74.1802 71.6364 73.94 71.4014L70.993 68.5179C70.7528 68.2829 70.7034 68.2934 70.444 68.5586L70.258 68.7487L70.2129 68.7046L71.5837 67.3037L71.6287 67.3477L71.4427 67.5379C71.1832 67.803 71.1689 67.8577 71.4091 68.0926L74.3461 70.9663C74.4562 71.074 74.4924 71.2172 74.4888 71.3409L74.4938 71.3458L75.2232 70.6003C75.7373 70.075 75.9898 69.6267 75.5535 69.1117L75.0923 68.5821L75.2 68.4721L76.5133 69.9725L76.4544 70.0226L76.1837 69.7088L76.1788 69.7138C76.1747 69.7881 76.1651 69.8179 76.077 69.9079L73.8104 72.2245Z" fill="black"/>
<path d="M75.9915 66.975L76.0758 66.8718L76.3155 67.0302C77.0065 67.4847 77.7998 67.3024 78.2343 66.7096C78.6481 66.145 78.6179 65.5587 78.0646 65.1531C77.0315 64.3958 75.5334 66.4396 74.28 65.5208C73.7324 65.1194 73.7255 64.3592 74.2635 63.6253C74.5366 63.2527 74.8455 63.0799 75.1161 62.9831C75.1774 62.9586 75.2952 62.9756 75.3204 62.9767L75.3381 62.9289C75.2903 62.9112 75.2241 62.8713 75.1409 62.819L74.8293 62.6166L74.8748 62.5545L76.2568 63.4635L76.1797 63.5805L75.9343 63.418C75.4676 63.1193 74.8162 63.0844 74.3651 63.6998C73.9968 64.2023 74.0285 64.6681 74.4745 64.9951C75.4738 65.7276 76.9813 63.6473 78.308 64.6198C78.9855 65.1165 78.9676 65.9105 78.3386 66.7686C78.0571 67.1525 77.7486 67.3603 77.3136 67.5275C77.2523 67.552 77.0788 67.5637 77.0156 67.5434L77.0005 67.5758C77.0735 67.5946 77.1921 67.6815 77.264 67.7255L77.6321 67.9693L77.5907 68.0257L75.9915 66.975Z" fill="black"/>
<path d="M12.849 39.2686L12.7831 39.245L12.8255 39.1264C12.9577 38.7573 12.8778 38.6692 12.5182 38.5107L8.78417 36.9576L8.64578 36.908C8.4942 36.8537 8.41837 36.8786 8.30507 37.1949L8.20121 37.4849L8.1419 37.4637L8.52429 36.3961L12.9731 35.8704C13.1285 35.8517 13.2571 35.8457 13.2966 35.8599L13.3084 35.8269C13.2689 35.8128 13.1428 35.7081 13.0604 35.6266L9.95706 32.3959L10.3465 31.3086L10.4058 31.3298L10.3185 31.5736C10.191 31.9295 10.271 32.0176 10.4621 32.0861C10.5148 32.105 10.5765 32.1196 10.6424 32.1432L14.3876 33.2914C14.768 33.4127 14.8791 33.393 15.0207 32.9976L15.0774 32.8395L15.1367 32.8607L14.4592 34.7521L14.3999 34.7308L14.4944 34.4672C14.636 34.0718 14.556 33.9837 14.3979 33.927L14.2858 33.8869L10.7609 32.788C10.64 32.7521 10.5411 32.7166 10.4686 32.6907L10.4521 32.7368C10.4719 32.7439 10.5674 32.8302 10.6822 32.9456L13.9309 36.3102L13.97 36.3465L13.9629 36.3662L13.9097 36.3695L9.34549 36.9058C9.19245 36.9179 9.06016 36.8929 9.04039 36.8858L9.03094 36.9121C9.09025 36.9334 9.13638 36.9499 9.25264 36.999L12.6463 38.4227C12.7056 38.444 12.756 38.4694 12.8021 38.486C12.9603 38.5426 13.054 38.5093 13.198 38.1073L13.2901 37.8503L13.3494 37.8715L12.849 39.2686Z" fill="black"/>
<path d="M17.0486 29.604C16.1493 31.0644 14.6748 31.4963 13.3575 30.6851C12.0462 29.8776 11.7683 28.3665 12.6676 26.9062C13.5596 25.4578 15.0341 25.0258 16.3454 25.8333C17.6626 26.6445 17.9405 28.1557 17.0486 29.604ZM16.956 29.5141C17.6864 28.328 17.3877 27.2644 16.1062 26.4753C14.6817 25.598 13.509 25.7802 12.7602 26.9961C12.0261 28.1882 12.3211 29.2577 13.6026 30.0469C15.0272 30.9241 16.1998 30.742 16.956 29.5141Z" fill="black"/>
<path d="M19.7225 25.3574L20.2689 24.7568C21.39 23.5245 21.3669 22.3016 20.2174 21.2559C19.0679 20.2101 17.8535 20.3072 16.7324 21.5395L16.186 22.1402L16.1912 22.1449C16.3145 22.1341 16.4002 22.1647 16.5193 22.2731L19.5588 25.0381C19.6779 25.1465 19.7164 25.2289 19.7173 25.3527L19.7225 25.3574ZM19.0432 26.2914L18.9966 26.249L19.1756 26.0523C19.4253 25.7778 19.4276 25.7232 19.1791 25.4971L16.1448 22.7368C15.8963 22.5107 15.7955 22.4758 15.5459 22.7502L15.3669 22.947L15.3203 22.9046L16.7805 21.2994C17.9958 19.9635 19.5516 19.7512 20.6649 20.764C21.7833 21.7814 21.7188 23.3503 20.5035 24.6863L19.0432 26.2914Z" fill="black"/>
<path d="M25.6188 16.4142L22.1339 19.0477L22.1846 19.1147C23.1932 20.4495 24.4134 20.6592 25.4633 19.8658C26.2899 19.2412 26.6873 18.4319 26.6354 17.6201L26.7655 17.6182C26.8163 18.4748 26.3826 19.329 25.5114 19.9874C24.2213 20.9623 22.6306 20.8659 21.6936 19.6261C20.7694 18.4031 21.0635 16.8998 22.4206 15.8742C23.4872 15.0681 24.897 15.0644 25.6651 16.0808L25.6862 16.1087C25.7538 16.1981 25.7249 16.334 25.6188 16.4142ZM22.0635 18.943L25.1279 16.5658C25.1558 16.5447 25.1599 16.5153 25.1346 16.4818C24.4129 15.5268 23.3566 15.3248 22.4909 15.979C21.441 16.7724 21.2922 17.8062 22.0635 18.943Z" fill="black"/>
<path d="M28.6335 17.6331L28.6045 17.5771L28.8407 17.4547C29.1701 17.284 29.1687 17.1901 29.0141 16.8918L27.1167 13.2313C26.9621 12.933 26.9119 12.9275 26.5825 13.0982L26.3463 13.2206L26.3174 13.1647L28.0575 12.2627L28.0865 12.3186L27.8503 12.4411C27.5209 12.6118 27.4903 12.6592 27.6449 12.9575L29.5359 16.6055C29.6068 16.7423 29.5964 16.8896 29.5543 17.006L29.5575 17.0122L30.4835 16.5322C31.136 16.194 31.516 15.8472 31.2627 15.2216L30.9903 14.5743L31.127 14.5035L31.9052 16.3393L31.8336 16.3685L31.6746 15.9858L31.6684 15.989C31.6412 16.0583 31.6228 16.0836 31.5109 16.1416L28.6335 17.6331Z" fill="black"/>
<path d="M33.1502 15.3331L33.1285 15.2739L33.3782 15.1824C33.7265 15.0546 33.7563 15.0139 33.6407 14.6984L32.202 10.7749C32.0863 10.4594 32.0372 10.4476 31.6889 10.5753L31.4392 10.6669L31.4175 10.6077L33.2577 9.93297L33.2842 10.0053L33.0344 10.0968C32.6861 10.2246 32.6497 10.2677 32.7654 10.5832L34.1993 14.4936C34.315 14.809 34.3706 14.8185 34.7189 14.6907L34.9687 14.5992L34.9904 14.6583L33.1502 15.3331Z" fill="black"/>
<path d="M36.562 13.9713L36.5421 13.9111L36.8024 13.8562C37.1655 13.7798 37.1993 13.7369 37.1301 13.4081L36.3078 9.50374C36.2819 9.38044 36.1589 9.30619 36.0082 9.33792L35.9877 9.34225L35.5497 9.47027L35.5342 9.43061L36.0933 9.1984C36.3831 9.08013 36.602 8.86236 36.5428 8.58152L36.5371 8.55412L36.5987 8.54113L36.7877 9.43845C36.8108 9.54805 36.9193 10.0975 36.9254 10.1606L36.9734 10.1505C36.968 10.0228 36.9795 9.80581 37.0029 9.67926C37.0995 9.05087 37.5544 8.56162 38.1778 8.43034C38.9929 8.25868 39.5315 8.57445 39.6628 9.19778L40.4043 12.7185C40.4735 13.0473 40.515 13.0744 40.878 12.9979L41.152 12.9402L41.165 13.0019L39.2402 13.4072L39.2272 13.3456L39.9601 13.1912L39.9573 13.1775C39.8924 13.1411 39.8743 13.1234 39.8513 13.0139L39.0982 9.43829C38.9569 8.76701 38.6681 8.44869 38.1406 8.55977C37.3735 8.72134 36.9258 9.51667 37.1364 10.5167L37.7192 13.284C37.7884 13.6128 37.8436 13.637 38.2066 13.5605L38.4669 13.5057L38.4799 13.5673L36.562 13.9713Z" fill="black"/>
<path d="M47.6102 12.8105L47.5402 12.8124L47.527 12.3226C47.5152 12.1478 47.3778 11.9835 47.2098 11.988C47.1398 11.9899 47.0636 12.02 46.9885 12.092C46.6477 12.4373 46.1557 12.6257 45.6308 12.6399C44.0214 12.6834 42.9158 11.6769 42.8739 10.1235C42.8324 8.59101 43.8615 7.54083 45.4499 7.49791C45.9677 7.48391 46.4755 7.61724 46.8683 7.90074C46.9042 7.93478 46.9405 7.98281 46.9558 8.03142L46.9836 8.02366C46.9681 7.96806 46.96 7.92627 46.9583 7.86329L46.905 7.18548L46.9817 7.17641L47.1589 9.3284L47.0262 9.33899L46.9857 8.87792C46.9076 8.06073 46.16 7.60476 45.3763 7.62594C44.1448 7.65922 43.5017 8.48189 43.5426 9.99334C43.5878 11.6657 44.3259 12.5491 45.6624 12.513C46.1661 12.4924 46.672 12.2966 46.9764 11.9033L46.9517 10.9866C46.9411 10.5948 46.6472 10.3436 46.2203 10.3551L45.3247 10.3793L45.3213 10.2534L48.1902 10.1759L48.1936 10.3018L47.5429 10.3194L47.6102 12.8105Z" fill="black"/>
<path d="M52.0046 12.7395L52.0202 12.6785L52.1355 12.7078C52.3254 12.7562 52.4823 12.5939 52.6564 12.3927L55.8723 8.53107L56.4489 8.67796L56.4281 8.75936C56.3936 8.89503 56.3758 9.07831 56.3957 9.17007L57.1538 13.5384C57.22 13.902 57.223 14.0039 57.4875 14.0713L57.5486 14.0869L57.533 14.1479L56.1085 13.785L56.1241 13.724L56.6939 13.8691L56.6973 13.8556C56.6042 13.7957 56.5728 13.6071 56.5479 13.478L56.3709 12.4433L53.4134 11.6898L52.7989 12.429C52.7647 12.4781 52.7305 12.5271 52.7184 12.5746C52.6787 12.7306 52.7867 12.8737 53.0105 12.9308L53.3768 13.0241L53.3613 13.0851L52.0046 12.7395ZM53.5055 11.5833L56.3477 12.3073L55.7999 9.15552C55.7733 9.03317 55.7889 8.94325 55.808 8.86864L55.7401 8.85136C55.7297 8.89206 55.6869 8.97506 55.5828 9.10022L53.5055 11.5833Z" fill="black"/>
<path d="M63.1099 16.8287L63.0466 16.7988L63.2559 16.3557C63.3242 16.1944 63.2757 15.9857 63.1238 15.914C63.0605 15.8841 62.9789 15.8766 62.8794 15.907C62.4194 16.0614 61.8953 16.0074 61.4206 15.7833C59.9647 15.0959 59.4322 13.6988 60.0957 12.2936C60.7502 10.9073 62.1424 10.4344 63.5793 11.1129C64.0477 11.334 64.4407 11.6822 64.6633 12.1124C64.68 12.159 64.6907 12.2182 64.6825 12.2685L64.7108 12.2741C64.722 12.2175 64.7336 12.1766 64.7605 12.1196L65.0188 11.4907L65.0914 11.5172L64.2785 13.5176L64.1552 13.4672L64.3272 13.0374C64.6262 12.2729 64.1648 11.5287 63.4558 11.1939C62.3418 10.6679 61.3967 11.1119 60.7512 12.4792C60.0369 13.992 60.297 15.1134 61.506 15.6843C61.9647 15.8931 62.5045 15.9467 62.9538 15.7331L63.3453 14.9039C63.5126 14.5494 63.3637 14.1927 62.9776 14.0103L62.1673 13.6278L62.2211 13.5139L64.8164 14.7392L64.7626 14.8532L64.1739 14.5752L63.1099 16.8287Z" fill="black"/>
<path d="M70.3419 17.9981L66.8096 15.4286L66.7602 15.4965C65.776 16.8494 65.9298 18.0779 66.994 18.8521C67.8318 19.4615 68.7216 19.6067 69.4833 19.3211L69.5229 19.4452C68.718 19.7426 67.7747 19.5757 66.8916 18.9334C65.5839 17.9822 65.2141 16.432 66.1282 15.1753C67.03 13.9356 68.5539 13.7803 69.9294 14.7809C71.0107 15.5674 71.4238 16.9153 70.6744 17.9456L70.6538 17.9739C70.5879 18.0645 70.4494 18.0763 70.3419 17.9981ZM66.8894 15.3308L70.0542 17.5724C70.0825 17.593 70.1119 17.5884 70.1366 17.5544C70.8407 16.5864 70.7271 15.517 69.8497 14.8787C68.7854 14.1046 67.753 14.2625 66.8894 15.3308Z" fill="black"/>
<path d="M70.0542 21.1901L70.0952 21.1418L70.2778 21.3352C70.5324 21.6051 70.5866 21.6116 70.831 21.381L73.7332 18.6429C73.8248 18.5564 73.8241 18.4128 73.7184 18.3008L73.704 18.2855L73.3663 17.9785L73.392 17.9446L73.8818 18.3006C74.1339 18.4861 74.4338 18.5592 74.6426 18.3623L74.6629 18.3431L74.7062 18.3889L74.0392 19.0182C73.9577 19.0951 73.5456 19.4743 73.495 19.5124L73.5286 19.548C73.6347 19.4769 73.8258 19.3735 73.946 19.3275C74.5325 19.0821 75.1873 19.215 75.6244 19.6783C76.196 20.2842 76.2076 20.9085 75.7443 21.3456L73.1272 23.8148C72.8829 24.0454 72.8814 24.0948 73.136 24.3647L73.3282 24.5683L73.2823 24.6116L71.9325 23.1809L71.9783 23.1376L72.4923 23.6824L72.5025 23.6728C72.4997 23.5984 72.5054 23.5739 72.5868 23.497L75.2446 20.9894C75.7436 20.5186 75.8645 20.1062 75.4946 19.7142C74.9566 19.1439 74.0445 19.1768 73.3011 19.8782L71.2442 21.8189C70.9998 22.0495 71.0079 22.1091 71.2625 22.379L71.4451 22.5725L71.3993 22.6157L70.0542 21.1901Z" fill="black"/>
<path d="M76.5561 24.48L76.5581 24.4703C77.8424 23.6332 79.2872 23.9782 80.1664 25.327C80.4493 25.7609 80.5975 26.2575 80.5632 26.7562C80.553 26.8046 80.5214 26.8586 80.4918 26.903L80.5303 26.9364C80.5696 26.8941 80.6303 26.8462 80.6889 26.808L81.1093 26.5172L81.1476 26.5758L79.491 27.7392L79.4087 27.6257L79.9426 27.2526C80.4475 26.8734 80.449 25.9784 80.0361 25.345C79.3443 24.2836 78.2932 24.1582 77.0266 24.9839C75.625 25.8974 75.2584 26.9887 75.9771 28.0911C76.3746 28.701 77.0694 29.1004 77.7111 29.008L77.7427 29.1462C76.9919 29.2763 76.3014 28.8323 75.8618 28.1579C74.9788 26.8033 75.2543 25.3286 76.5561 24.48Z" fill="black"/>
<path d="M78.0461 31.6864L78.104 31.6614L78.3648 32.2655C78.5119 32.6061 78.5579 32.6243 78.8664 32.4911L80.6529 31.7197L82.1165 29.7763C82.3371 29.4752 82.4747 29.37 82.3637 29.113L82.2999 28.9652L82.3513 28.943L82.9285 30.2797L82.8771 30.3019L82.6884 29.8649L82.6755 29.8704C82.685 29.9807 82.5834 30.1161 82.4405 30.315L81.2537 31.9102C81.2097 31.9673 81.1226 32.0659 81.0869 32.089L81.1091 32.1404C81.1504 32.1301 81.2754 32.1372 81.3536 32.1415L83.2108 32.3461C83.3414 32.3659 83.4544 32.3629 83.5315 32.3296C83.6408 32.2824 83.6782 32.1747 83.581 31.9498L83.3979 31.5257L83.4493 31.5035L84.0376 32.8659L83.9862 32.8881L83.9362 32.7724C83.8419 32.5539 83.6828 32.5387 83.2746 32.4939L80.9843 32.24L79.1014 33.053C78.7929 33.1862 78.7774 33.2387 78.9245 33.5793L79.1492 34.0998L79.0978 34.122L78.0461 31.6864Z" fill="black"/>
<path d="M11.6583 50.121L12.1184 50.2588C12.5594 50.4134 12.7486 50.6961 12.7244 51.0734C12.673 51.8727 11.8178 52.9721 11.7797 53.5649C11.7688 53.7356 11.8505 53.8671 12.0716 53.9354L12.5389 54.1007L12.4926 54.26L12.0247 54.1037C11.6628 53.9813 11.4443 53.7328 11.4697 53.3376C11.5193 52.5652 12.3661 51.4562 12.4054 50.8454C12.4169 50.6658 12.3267 50.5247 12.0703 50.4451L11.6108 50.2984L11.6583 50.121Z" fill="black"/>
<path d="M82.2337 45.2821L82.6831 45.4516C83.1122 45.6366 83.2813 45.9318 83.2308 46.3064C83.1239 47.1002 82.1941 48.1374 82.1147 48.7261C82.0919 48.8955 82.1643 49.0324 82.38 49.116L82.8347 49.3135L82.7774 49.4692L82.3215 49.2806C81.9691 49.1332 81.7684 48.8701 81.8213 48.4776C81.9246 47.7106 82.8467 46.6633 82.9285 46.0568C82.9525 45.8784 82.8724 45.7314 82.6222 45.6341L82.174 45.4557L82.2337 45.2821Z" fill="black"/>
<path d="M37.8439 58.071H33.6027C33.6027 58.071 34.5802 57.4081 34.9077 56.7661C35.1464 56.2982 35.234 56.1136 35.234 55.4611V37.5179C35.234 37.1916 35.1296 35.9824 34.5815 35.2342C34.0385 34.493 32.624 33.9292 32.624 33.9292H36.8652L44.6949 51.8725C44.6949 51.8725 44.7718 51.7996 45.0212 51.22C45.1966 50.8125 45.0212 51.22 45.3474 50.5675C45.6737 49.915 45.6737 49.5888 46.3262 48.6101C46.646 48.1303 46.8282 47.8921 46.8282 47.8921C46.8282 47.8921 47.0961 47.5139 47.3049 47.3051C47.6311 46.9788 47.8758 46.756 48.2836 46.4292C48.6914 46.1023 49.0992 45.7956 49.2623 45.6739C49.6459 45.3877 49.8861 45.2111 50.1253 45.0214C50.3453 44.8469 50.7114 44.516 50.8935 44.3689C51.0757 44.2219 51.8051 43.5654 52.1985 43.064C52.5919 42.5625 52.499 42.6994 52.7331 42.3472C52.9087 42.0831 53.1045 41.7684 53.2951 41.4327C53.441 41.1758 53.5839 40.9065 53.7123 40.6382C53.9063 40.233 54.0673 39.83 54.1559 39.4753C54.4822 38.1703 54.8084 36.2129 54.8084 36.2129L55.1347 33.9292H59.702C59.702 33.9292 57.7446 34.2554 57.4184 35.5604C57.0921 36.8654 57.4184 55.1349 57.4184 56.4398C57.4184 57.7448 59.0496 58.071 59.0496 58.071H53.5035C53.5035 58.071 55.1347 57.4186 55.1347 56.4398V37.8441C55.1347 37.8441 54.8578 39.4728 54.4822 40.454C54.3482 40.8041 54.3183 40.857 54.1947 41.1065C54.1093 41.279 53.887 41.6503 53.8297 41.759C53.7724 41.8677 53.5641 42.2414 53.3685 42.5394C53.2137 42.7753 53.0374 43.0262 52.851 43.2715C52.6859 43.4887 52.5128 43.7016 52.3398 43.8956C52.182 44.0726 52.0241 44.234 51.8722 44.3689C51.686 44.5343 51.4391 44.7375 51.1634 44.9568C50.9272 45.1446 50.67 45.3442 50.4116 45.542C50.1583 45.736 49.904 45.9282 49.6676 46.1058C49.3884 46.3155 49.1341 46.5049 48.9361 46.6526C48.7195 46.8141 48.5381 46.9566 48.3781 47.0912C48.2085 47.2339 48.063 47.368 47.9253 47.5068C47.739 47.6946 47.5669 47.8913 47.369 48.1303C47.2509 48.2728 47.1237 48.4304 46.9786 48.61C46.6436 49.0252 46.4197 49.461 46.2221 49.915C46.1285 50.13 46.0408 50.349 45.95 50.5719C45.8634 50.7845 45.7739 51.0007 45.6737 51.22C45.1715 52.3194 45.3474 52.8512 45.3474 52.8512C45.3474 52.8512 46.6524 55.4611 47.6311 56.7661C48.6098 58.071 50.241 58.071 50.241 58.071H45.3474L36.2127 37.5179V55.4611C36.2127 56.1136 36.3002 56.2982 36.5389 56.7661C36.8665 57.4081 37.8439 58.071 37.8439 58.071Z" fill="black"/>
</svg>
